<?xml version="1.0" encoding="UTF-8"?>
<svg width="1777px" height="401px" viewBox="0 0 1777 401" version="1.1" xmlns="http://www.w3.org/2000/svg" xmlns:xlink="http://www.w3.org/1999/xlink">
  <title>ratingcafe</title>
  <desc>Created with Sketch.</desc>
  <defs></defs>
  <g stroke="none" stroke-width="1" fill="none" fill-rule="evenodd">
    <g id="ratingcafe" fill-rule="nonzero">
      <g transform="translate(344.000000, 37.000000)" fill="#FFFFFF">
          <path d="M84.337,56.661 C83.923,56.661 83.513,56.682 83.11,56.723 C60.085,57.054 39.314,66.642 24.337,81.943 L24.337,68.661 C24.337,62.034 18.964,56.661 12.337,56.661 C5.71,56.661 0.337,62.034 0.337,68.661 L0.337,212.994 L0.354,212.994 C0.532,219.466 5.822,224.661 12.337,224.661 C18.852,224.661 24.142,219.466 24.32,212.994 L24.337,212.994 L24.337,138.771 C25.351,106.629 51.588,80.858 83.925,80.64 C84.063,80.645 84.198,80.661 84.337,80.661 C90.964,80.661 96.337,75.288 96.337,68.661 C96.337,62.034 90.964,56.661 84.337,56.661 Z" id="Shape"></path>
          <path d="M260.337,56.661 C253.71,56.661 248.337,62.034 248.337,68.661 L248.337,81.928 C233.09,66.362 211.847,56.692 188.337,56.692 C141.945,56.692 104.337,94.3 104.337,140.692 C104.337,187.084 141.945,224.692 188.337,224.692 C211.847,224.692 233.09,215.022 248.337,199.456 L248.337,212.994 L248.354,212.994 C248.532,219.466 253.822,224.661 260.337,224.661 C266.852,224.661 272.142,219.466 272.32,212.994 L272.337,212.994 L272.337,68.661 C272.337,62.034 266.964,56.661 260.337,56.661 Z M188.337,200.754 C155.165,200.754 128.275,173.863 128.275,140.692 C128.275,107.52 155.166,80.63 188.337,80.63 C220.682,80.63 247.042,106.2 248.337,138.227 L248.337,143.158 C247.042,175.184 220.681,200.754 188.337,200.754 Z" id="Shape"></path>
          <circle id="Oval" cx="412.337" cy="32.661" r="12"></circle>
          <circle id="Oval" cx="748.337" cy="68.661" r="12"></circle>
          <path d="M372.337,177.911 C365.794,177.911 360.484,183.15 360.35,189.661 L360.287,189.661 C359.778,195.819 354.627,200.661 348.337,200.661 C342.047,200.661 336.897,195.819 336.387,189.661 L336.337,189.661 L336.337,56.661 L348.337,56.661 C354.964,56.661 360.337,51.288 360.337,44.661 C360.337,38.034 354.964,32.661 348.337,32.661 L336.337,32.661 L336.337,12.661 C336.337,6.034 330.964,0.661 324.337,0.661 C317.71,0.661 312.337,6.034 312.337,12.661 L312.337,32.661 L300.337,32.661 C293.71,32.661 288.337,38.034 288.337,44.661 C288.337,51.288 293.71,56.661 300.337,56.661 L312.337,56.661 L312.337,189.994 L312.38,189.994 C313.084,209.256 328.903,224.661 348.337,224.661 C367.225,224.661 382.701,210.112 384.203,191.612 C384.282,191.055 384.337,190.49 384.337,189.911 C384.337,183.284 378.964,177.911 372.337,177.911 Z" id="Shape"></path>
          <path d="M412.337,56.661 C405.71,56.661 400.337,62.034 400.337,68.661 L400.337,212.994 L400.354,212.994 C400.532,219.466 405.822,224.661 412.337,224.661 C418.852,224.661 424.142,219.466 424.32,212.994 L424.337,212.994 L424.337,68.661 C424.337,62.034 418.964,56.661 412.337,56.661 Z" id="Shape"></path>
          <path d="M1148.337,56.661 C1141.71,56.661 1136.337,62.034 1136.337,68.661 L1136.337,81.928 C1121.09,66.362 1099.847,56.692 1076.337,56.692 C1029.945,56.692 992.337,94.3 992.337,140.692 C992.337,187.084 1029.945,224.692 1076.337,224.692 C1099.847,224.692 1121.09,215.022 1136.337,199.456 L1136.337,212.994 L1136.354,212.994 C1136.532,219.466 1141.822,224.661 1148.337,224.661 C1154.852,224.661 1160.142,219.466 1160.32,212.994 L1160.337,212.994 L1160.337,68.661 C1160.337,62.034 1154.964,56.661 1148.337,56.661 Z M1076.337,200.754 C1043.165,200.754 1016.275,173.863 1016.275,140.692 C1016.275,107.52 1043.166,80.63 1076.337,80.63 C1108.682,80.63 1135.042,106.2 1136.337,138.227 L1136.337,143.158 C1135.042,175.184 1108.682,200.754 1076.337,200.754 Z" id="Shape"></path>
          <path d="M512.337,56.661 C493.893,56.661 477.076,63.604 464.337,75.009 L464.337,68.661 C464.337,62.034 458.964,56.661 452.337,56.661 C445.71,56.661 440.337,62.034 440.337,68.661 L440.337,212.994 L440.354,212.994 C440.532,219.466 445.822,224.661 452.337,224.661 C458.852,224.661 464.142,219.466 464.32,212.994 L464.337,212.994 L464.337,128.661 C464.337,102.151 485.827,80.661 512.337,80.661 C538.847,80.661 560.337,102.151 560.337,128.661 L560.337,212.994 L560.354,212.994 C560.532,219.466 565.822,224.661 572.337,224.661 C578.852,224.661 584.142,219.466 584.32,212.994 L584.337,212.994 L584.337,127.661 L584.312,127.661 C583.774,88.359 551.766,56.661 512.337,56.661 Z" id="Shape"></path>
          <path d="M636.337,200.661 L672.337,200.661 C712.102,200.661 744.337,168.425 744.337,128.661 C744.337,88.896 712.102,56.661 672.337,56.661 C632.572,56.661 600.337,88.896 600.337,128.661 C600.337,148.658 608.494,166.745 621.656,179.792 C609.095,185.412 600.337,198.009 600.337,212.661 C600.337,232.208 615.918,248.105 635.337,248.636 L635.337,248.661 L708.337,248.661 L708.337,248.994 C714.964,248.994 720.337,254.367 720.337,260.994 C720.337,266.668 716.395,271.41 711.104,272.661 L684.468,272.661 L684.468,272.668 C684.424,272.668 684.382,272.661 684.338,272.661 C677.711,272.661 672.338,278.034 672.338,284.661 C672.338,291.288 677.711,296.661 684.338,296.661 C684.382,296.661 684.425,296.655 684.468,296.654 L684.468,296.661 L708.338,296.661 L708.338,296.994 C709.981,296.994 711.595,296.874 713.179,296.661 L714.005,296.661 L714.005,296.547 C731.194,293.828 744.338,278.948 744.338,260.995 C744.338,241.181 728.329,225.11 708.541,225 L708.541,224.662 L636.338,224.662 C629.711,224.662 624.338,219.289 624.338,212.662 C624.337,206.034 629.709,200.661 636.337,200.661 Z M672.337,80.661 C698.847,80.661 720.337,102.151 720.337,128.661 C720.337,155.171 698.847,176.661 672.337,176.661 C645.827,176.661 624.337,155.171 624.337,128.661 C624.337,102.151 645.827,80.661 672.337,80.661 Z" id="Shape"></path>
          <path d="M1272.337,35.411 C1272.337,34.832 1272.282,34.267 1272.203,33.71 C1270.701,15.209 1255.225,0.661 1236.337,0.661 C1216.903,0.661 1201.083,16.065 1200.38,35.328 L1200.337,35.328 L1200.337,56.661 L1188.337,56.661 C1181.71,56.661 1176.337,62.034 1176.337,68.661 C1176.337,75.288 1181.71,80.661 1188.337,80.661 L1200.337,80.661 L1200.337,212.661 L1200.337,212.661 L1200.337,212.661 C1200.337,219.288 1205.71,224.661 1212.337,224.661 C1218.964,224.661 1224.337,219.288 1224.337,212.661 L1224.337,212.661 L1224.337,212.661 L1224.337,80.661 L1236.337,80.661 C1242.964,80.661 1248.337,75.288 1248.337,68.661 C1248.337,62.034 1242.964,56.661 1236.337,56.661 L1224.337,56.661 L1224.337,35.661 L1224.388,35.661 C1224.897,29.503 1230.048,24.661 1236.337,24.661 C1242.626,24.661 1247.777,29.503 1248.286,35.661 L1248.349,35.661 C1248.483,42.172 1253.793,47.411 1260.336,47.411 C1266.964,47.411 1272.337,42.038 1272.337,35.411 Z" id="Shape"></path>
          <path d="M908.417,80.63 C928.069,80.63 945.515,90.07 956.472,104.661 C956.472,104.661 956.517,104.649 956.581,104.632 C958.758,107.673 962.311,109.661 966.336,109.661 C972.963,109.661 978.336,104.288 978.336,97.661 C978.336,94.184 976.848,91.061 974.485,88.87 C973.845,88.056 973.213,87.235 972.544,86.446 C970.543,84.082 968.414,81.831 966.167,79.702 C951.115,65.441 930.789,56.693 908.417,56.693 C862.025,56.693 824.417,94.301 824.417,140.693 C824.417,187.085 862.025,224.693 908.417,224.693 C932.693,224.693 954.558,214.393 969.891,197.926 C972.081,195.574 974.139,193.095 976.05,190.503 C976.061,190.488 976.052,190.45 976.058,190.428 C977.486,188.453 978.337,186.035 978.337,183.412 C978.337,176.785 972.964,171.412 966.337,171.412 C961.963,171.412 958.148,173.76 956.05,177.256 C945.07,191.539 927.825,200.756 908.417,200.756 C875.245,200.756 848.355,173.865 848.355,140.694 C848.355,107.521 875.246,80.63 908.417,80.63 Z" id="Shape"></path>
          <path d="M1432.336,140.671 C1432.336,140.668 1432.336,140.664 1432.336,140.661 C1432.336,140.652 1432.335,140.643 1432.335,140.634 C1432.334,139.302 1432.304,137.978 1432.241,136.661 C1430.137,92.141 1393.376,56.692 1348.336,56.692 C1301.944,56.692 1264.336,94.3 1264.336,140.692 C1264.336,187.084 1301.944,224.692 1348.336,224.692 C1375.741,224.692 1400.073,211.563 1415.403,191.256 C1415.811,190.785 1416.179,190.282 1416.51,189.752 C1416.584,189.649 1416.661,189.549 1416.735,189.446 C1416.772,189.394 1416.777,189.331 1416.8,189.274 C1417.774,187.539 1418.336,185.542 1418.336,183.41 C1418.336,176.783 1412.963,171.41 1406.336,171.41 C1402.143,171.41 1398.457,173.564 1396.311,176.823 C1385.349,191.355 1367.942,200.754 1348.336,200.754 C1319.263,200.754 1295.018,180.097 1289.47,152.66 L1420.336,152.66 C1426.951,152.66 1432.314,147.307 1432.334,140.696 C1432.334,140.694 1432.336,140.693 1432.336,140.691 C1432.337,140.685 1432.336,140.678 1432.336,140.671 Z M1348.337,80.63 C1377.388,80.63 1401.62,101.255 1407.192,128.661 L1289.482,128.661 C1295.054,101.255 1319.286,80.63 1348.337,80.63 Z" id="Shape"></path>
      </g>

      <g>
          <g id="Shape">
            <g>
                <path d="M198.949,37.389 C166.157,3.06 126.101,1.972 117.359,1.972 C108.198,1.972 61.745,5.383 32.387,40.8 C11.175,66.387 1.926,101.267 1.919,128.375 C1.912,153.513 13.588,184.797 22.587,204.656 C31.579,224.507 78.804,315.655 85.229,326.743 C96.758,346.646 117.359,345.889 117.359,345.889 C117.359,345.889 137.982,346.646 149.518,326.743 C155.944,315.656 203.169,224.508 212.168,204.656 C221.16,184.797 232.85,151.594 232.843,128.375 C232.829,101.267 223.616,63.218 198.949,37.389 Z" fill="#25441E"></path>

                <path d="M117.66,345.994 L117.66,345.994 C117.52,345.994 117.425,345.994 117.366,345.994 C117.3,345.994 117.197,345.994 117.064,345.994 C114.829,345.994 94.889,346.337 83.567,326.794 C76.972,315.413 29.644,224.428 20.836,204.988 C2.698,164.932 -0.008,139.74 0,128.146 C0.007,103.236 8.132,66.942 30.909,39.465 C63.297,0.388 115.168,0 117.359,0 C131.968,0 169.289,3.535 200.331,36.04 C225.697,62.597 234.748,101.147 234.755,128.351 C234.763,151.261 223.535,184.192 213.918,205.433 C205.124,224.851 157.782,315.39 151.18,326.794 C139.85,346.336 119.896,345.994 117.66,345.994 Z M117.359,341.994 L117.432,341.994 C117.439,341.994 117.52,341.994 117.66,341.994 C119.675,341.994 137.607,342.469 147.856,324.786 C154.444,313.419 201.646,222.729 210.418,203.362 C219.88,182.474 230.931,150.415 230.924,128.123 C230.917,113.529 228.218,97.549 223.322,82.888 C217.411,65.205 208.75,50.37 197.559,38.658 C183.906,24.358 167.429,14.272 148.585,8.618 C135.49,4.684 124.381,3.872 117.359,3.872 C115.771,3.872 101.301,4.049 83.038,9.916 C62.62,16.482 46.077,27.282 33.865,42.016 C11.735,68.713 3.838,104.132 3.838,128.373 C3.831,139.652 6.492,164.468 24.329,203.862 C33.115,223.25 80.303,313.431 86.883,324.783 C97.132,342.465 115.057,341.994 117.064,341.994 C117.197,341.994 117.277,341.994 117.292,341.994 L117.359,341.994 Z" fill="#223319"></path>
            </g>

            <path d="M196.486,41.506 C164.687,8.207 125.836,7.149 117.366,7.149 C108.477,7.149 63.421,10.458 34.946,44.808 C14.374,69.629 5.404,103.458 5.397,129.75 C5.389,154.131 16.72,184.474 25.44,203.73 C34.167,222.986 79.966,311.384 86.2,322.141 C97.383,341.441 117.367,340.706 117.367,340.706 C117.367,340.706 137.366,341.441 148.549,322.141 C154.777,311.384 200.589,222.986 209.317,203.73 C218.037,184.474 229.367,152.271 229.36,129.75 C229.351,103.458 220.418,66.556 196.486,41.506 Z" fill="#A1C93A"></path>

            <path d="M181.59,59.63 C155.775,32.61 124.248,31.749 117.366,31.749 C110.153,31.749 73.583,34.433 50.474,62.313 C33.776,82.451 26.498,109.912 26.49,131.249 C26.482,151.042 35.673,175.665 42.761,191.296 C49.834,206.927 87.008,278.679 92.074,287.399 C101.147,303.067 117.366,302.471 117.366,302.471 C117.366,302.471 133.6,303.067 142.673,287.399 C147.731,278.679 184.913,206.927 191.993,191.296 C199.074,175.665 208.272,149.527 208.272,131.249 C208.257,109.913 201.008,79.967 181.59,59.63 Z" fill="#BFD864"></path>

            <path d="M181.59,59.63 C155.775,32.61 124.248,31.749 117.366,31.749 C110.153,31.749 73.583,34.433 50.474,62.313 C33.776,82.451 26.498,109.912 26.49,131.249 C26.482,151.042 35.673,175.665 42.761,191.296 C49.834,206.927 87.008,278.679 92.074,287.399 C101.147,303.067 117.366,302.471 117.366,302.471 C117.366,302.471 133.6,303.067 142.673,287.399 C147.731,278.679 184.913,206.927 191.993,191.296 C199.074,175.665 208.272,149.527 208.272,131.249 C208.257,109.913 201.008,79.967 181.59,59.63 Z" fill="#D0DF70"></path>

            <g transform="translate(69.000000, 77.000000)">
              <path d="M42.382,3.82 C18.384,9.114 9.186,27.201 9.186,27.201 C9.186,27.201 1.069,42.259 3.069,59.456 C7.223,96.777 31.516,104.335 31.516,104.335 C31.516,104.335 63.219,122.319 84.152,91.63 C96.747,73.168 94.71,44.935 89.762,32.494 C84.628,19.584 66.387,-1.466 42.382,3.82 Z" fill="#906F2A"></path>
              <path d="M52.535,111.062 L52.535,111.062 C41.124,111.062 32.103,106.761 30.654,105.974 C29.426,105.547 23.596,103.452 17.346,97.239 C11.089,91.019 3.171,79.505 0.958,59.609 C-1.086,42.125 6.811,27.067 7.296,26.17 C7.832,25.111 17.428,7.12 41.926,1.723 C44.587,1.135 47.293,0.848 49.947,0.848 C71.46,0.848 86.996,19.773 91.738,31.699 C94.576,38.838 96.076,49.639 95.664,59.888 C95.289,68.932 93.304,81.673 85.914,92.503 C77.489,104.857 65.946,111.062 52.535,111.062 Z M49.947,5.121 C47.602,5.121 45.205,5.386 42.845,5.9 C20.177,10.9 11.164,27.994 11.083,28.163 L11.054,28.207 C10.981,28.354 3.29,42.919 5.187,59.205 C6.326,69.439 9.848,83.806 20.171,94.195 C26.332,100.4 32.096,102.283 32.155,102.305 L32.368,102.371 L32.566,102.452 C32.654,102.503 41.492,107.378 52.535,107.378 L52.535,107.378 C64.644,107.378 74.688,101.687 82.393,90.394 C94.944,71.998 92.091,44.111 87.782,33.266 C85.275,26.965 80.246,20.156 74.327,15.025 C69.108,10.503 60.638,5.121 49.947,5.121 Z" fill="#47372C"></path>
            </g>

            <path d="M110.374,90.025 C91.53,94.223 85.618,109.957 85.618,109.957 C85.618,109.957 77.964,120.64 79.552,134.352 C82.846,164.114 101.933,170.166 101.933,170.166 C101.933,170.166 126.835,184.533 143.246,160.078 C153.113,145.373 150.246,127.382 146.415,117.404 C142.32,106.767 129.211,85.834 110.374,90.025 Z" fill="#AD8C52"></path>
          </g>

          <path d="M162.885,395.161 C162.885,398.036 142.511,400.374 117.381,400.374 C92.243,400.374 71.87,398.036 71.87,395.161 C71.87,392.286 92.243,389.956 117.381,389.956 C142.512,389.956 162.885,392.286 162.885,395.161 Z" fill="#142709"></path>
      </g>
    </g>
  </g>
</svg>